<?xml version="1.0" standalone="no"?><!DOCTYPE svg PUBLIC "-//W3C//DTD SVG 1.1//EN" "http://www.w3.org/Graphics/SVG/1.1/DTD/svg11.dtd"><svg t="1646140885569" class="icon" viewBox="0 0 1024 1024" version="1.1" xmlns="http://www.w3.org/2000/svg" p-id="4392" xmlns:xlink="http://www.w3.org/1999/xlink" width="200" height="200"><defs><style type="text/css"></style></defs><path d="M1024 512c0-282.763636-229.236364-512-512-512C229.236364 0 0 229.236364 0 512c0 282.763636 229.236364 512 512 512C794.763636 1024 1024 794.763636 1024 512zM484.026182 505.483636c-23.04-64.418909-51.525818-28.904727-58.414545-45.940364C412.439273 427.008 329.681455 355.979636 341.271273 310.737455c8.890182-34.629818-81.733818-63.208727-126.510545-24.110545 17.92-21.038545 17.454545-110.778182 65.349818-101.376 39.237818 7.726545 65.024-9.309091 88.669091-6.004364 47.383273 6.609455 26.996364 17.361455 71.028364 28.439273 24.901818 6.283636 77.591273-22.155636 115.525818-10.053818 10.007273 3.211636 20.526545 19.595636 8.378182 36.770909-10.146909 14.336-64.605091 12.893091-44.404364 30.301091 17.082182 14.754909 48.546909 40.587636 74.752 46.033455 26.437818 5.538909-2.420364-60.788364 22.667636-67.677091 25.088-6.888727 110.778182 61.114182 99.793455 67.677091-25.925818 15.453091 36.584727 18.850909 26.763636 28.718545C739.141818 343.552 667.927273 315.345455 663.272727 325.585455c-12.939636 28.532364 25.506909 9.588364 17.221818 32.116364-2.187636 5.957818-16.290909 1.396364-23.458909 7.307636-19.874909 16.337455-43.287273 41.518545-47.616 45.195636-23.877818 20.293818-7.726545 32.162909-15.406545 38.632727-6.749091 5.678545-16.244364-19.502545-22.714182-14.382545-21.504 17.035636-55.994182 11.682909-55.994182 25.181091s35.560727 13.917091 48.360727 20.619636c16.290909 8.517818 8.843636 25.320727 13.032727 25.320727 26.205091 0 50.036364 45.381818 50.036364 45.381818s18.664727 17.547636 46.592 15.127273c73.029818-6.283636 74.612364 44.125091 74.612364 44.125091 26.670545-8.564364 65.675636 16.244364 50.082909 28.485818-31.325091 24.622545-30.626909 63.860364-30.626909 63.860364-20.666182 15.499636-133.026909 104.680727-119.528727 137.262545-13.498182 18.664727 2.001455 38.260364-13.498182 47.662545-25.227636 15.36-63.115636-51.851636-31.557818-59.950545-5.445818-5.864727-11.636364-17.733818 0-36.212364 5.12-8.098909 3.118545-52.875636 6.469818-100.910545-132.282182-96.535273 2.141091-127.953455-24.296727-142.848-8.704-4.933818-23.784727-26.530909-50.222545-31.325091C513.303273 512.232727 488.215273 525.544727 484.026182 505.483636z" p-id="4393"></path></svg>